<svg id="Capa_1" enable-background="new 0 0 512 512" height="512" viewBox="0 0 512 512" width="512" xmlns="http://www.w3.org/2000/svg"><g><g><g><path d="m30.019 35.962h451.962c16.553 0 30.019 13.483 30.019 30.055v379.966c0 16.572-13.466 30.055-30.019 30.055h-451.962c-16.552 0-30.019-13.483-30.019-30.055v-379.966c0-16.572 13.467-30.055 30.019-30.055z" fill="#9ce0f6"/><path d="m481.981 35.962h-225.981v440.075h225.981c16.553 0 30.019-13.482 30.019-30.055v-379.965c0-16.572-13.466-30.055-30.019-30.055z" fill="#61a7c5"/></g><g><path d="m512 106.014v-39.997c0-16.572-13.466-30.055-30.019-30.055h-451.962c-16.552 0-30.019 13.483-30.019 30.055v39.997z" fill="#fbf4f4"/><path d="m481.981 35.962h-225.981v70.052h256v-39.997c0-16.572-13.466-30.055-30.019-30.055z" fill="#e2e9ee"/></g></g><g><path d="m336.611 354.125c-4.453 0-8.862-1.976-11.822-5.757-5.115-6.532-3.972-15.977 2.552-21.098l46.992-36.883-46.992-36.883c-6.524-5.121-7.666-14.566-2.552-21.098 5.114-6.531 14.548-7.675 21.072-2.555l62.06 48.71c3.629 2.848 5.749 7.209 5.749 11.826s-2.12 8.978-5.749 11.826l-62.06 48.709c-2.747 2.157-6.011 3.203-9.25 3.203z" fill="#283758"/><path d="m175.389 354.125c-3.24 0-6.503-1.046-9.25-3.202l-62.06-48.709c-3.629-2.848-5.749-7.209-5.749-11.826s2.12-8.978 5.749-11.826l62.06-48.71c6.523-5.12 15.959-3.975 21.072 2.555 5.115 6.532 3.972 15.977-2.552 21.098l-46.992 36.883 46.992 36.883c6.524 5.121 7.667 14.565 2.552 21.098-2.96 3.78-7.369 5.755-11.822 5.756z" fill="#425796"/><g><path d="m235.532 382.967c-1.285 0-2.59-.166-3.891-.515-8.008-2.146-12.761-10.385-10.617-18.402l41.469-155.098c2.143-8.018 10.369-12.777 18.38-10.631 8.007 2.146 12.761 10.385 10.617 18.402l-41.47 155.098c-1.793 6.716-7.859 11.146-14.488 11.146z" fill="#425796"/><path d="m280.874 198.322c-8.011-2.146-16.237 2.613-18.38 10.631l-6.494 24.287v116.225l35.492-132.74c2.143-8.018-2.61-16.257-10.618-18.403z" fill="#283758"/></g></g></g></svg>