<svg height="512" viewBox="0 0 512 512" width="512" xmlns="http://www.w3.org/2000/svg"><g id="flat"><path d="m24 168h80v80h-80z" fill="#8726e2"/><path d="m29.5 218.062c-1.846 0-3.679-.055-5.5-.155v35.155h80v-69.062a98.273 98.273 0 0 1 -74.5 34.062z" fill="#691daf"/><path d="m104 280h80v104h-80z" fill="#ff9f03"/><path d="m109.5 349q-2.769 0-5.5-.156v35.156h80v-69.062a98.273 98.273 0 0 1 -74.5 34.062z" fill="#ff891f"/><path d="m368 48 11.309 67.118a20.653 20.653 0 0 0 24.3 16.843 20.653 20.653 0 0 0 16.313-24.325l-3.922-19.636z" fill="#fcae60"/><path d="m88 424h112v64h-112z" fill="#8726e2"/><path d="m24 424h80v64h-80z" fill="#3bdabe"/><path d="m184 424h80v64h-80z" fill="#ffcd01"/><path d="m24 360h240v64h-240z" fill="#48bdff"/><path d="m24 232h240v64h-240z" fill="#38c1a7"/><path d="m184 152h80v96h-80z" fill="#ff2b63"/><path d="m104 104h224v64h-224z" fill="#48bdff"/><path d="m168 40h96v64h-96z" fill="#8726e2"/><path d="m104 40h80v64h-80z" fill="#ff2b63"/><path d="m304 424h80v64h-80z" fill="#ff2b63"/><path d="m344 344h224v64h-224z" fill="#ffcd01" transform="matrix(0 1 -1 0 832 -80)"/><path d="m456 464a8 8 0 0 1 -8-8v-48a8 8 0 0 1 16 0v48a8 8 0 0 1 -8 8z" fill="#ffba01"/><path d="m296 144h-48a8 8 0 0 1 0-16h48a8 8 0 0 1 0 16z" fill="#3ba4f2"/><g fill="#fdc47d"><circle cx="144" cy="72" r="8"/><circle cx="224" cy="200" r="8"/><circle cx="64" cy="456" r="8"/><circle cx="344" cy="456" r="8"/><path d="m488 96-48-48-80-24-64 32-4.734 28.4a16.832 16.832 0 0 0 16.6 19.6 16.831 16.831 0 0 0 15.967-11.509l4.167-12.491 32-8 56 24-8 48-40 24h-38.676a17.324 17.324 0 0 0 -17.324 17.324 17.325 17.325 0 0 0 14.476 17.089l33.524 5.587h64l64-24z"/></g><path d="m440 48-80-24-64 32-4.734 28.4a16.7 16.7 0 0 0 1.112 9.332l3.622-21.732 64-32 80 24 48 48v-16z" fill="#fcae60"/><path d="m312 104v32a16 16 0 0 1 -16 16h-192v16h224v-64z" fill="#3ba4f2"/><path d="m24 232h240v64h-240z" fill="#3bdabe"/><path d="m248 232v32a16 16 0 0 1 -16 16h-208v16h240v-64z" fill="#38c1a7"/><circle cx="56" cy="264" fill="#fdc47d" r="8"/><path d="m24 360h240v64h-240z" fill="#48bdff"/><path d="m248 360v32a16 16 0 0 1 -16 16h-208v16h240v-64z" fill="#3ba4f2"/><path d="m104 400h-48a8 8 0 0 1 0-16h48a8 8 0 0 1 0 16z" fill="#3ba4f2"/><path d="m318.5 477a78.9 78.9 0 0 1 -14.5-1.359v12.359h80v-46.244a78.416 78.416 0 0 1 -65.5 35.244z" fill="#e5235f"/></g></svg>