<svg id="Capa_1" enable-background="new 0 0 512 512" height="512" viewBox="0 0 512 512" width="512" xmlns="http://www.w3.org/2000/svg"><g><path d="m234.092 350.249 21.908 161.751s117.09-80.741 117.09-180.34c0-21.846-5.635-42.785-14.431-62.163z" fill="#009986"/><path d="m153.34 269.497c-8.796 19.379-14.431 40.317-14.431 62.163.001 99.599 117.091 180.34 117.091 180.34v-161.751z" fill="#00cc76"/><path d="m358.66 269.497c-31.304-68.971-102.66-118.177-102.66-118.177l-21.908 105.917 21.908 114.919z" fill="#00cc76"/><path d="m256 151.32s-71.356 49.207-102.66 118.177l102.66 102.659z" fill="#a5e887"/><path d="m391 165h30c0-90.981-74.019-165-165-165l-10.008 15 10.008 15c74.439 0 135 60.561 135 135z" fill="#ffde55"/><path d="m331 165h30c0-57.897-47.103-105-105-105l-10.008 15.667 10.008 14.333c41.355 0 75 33.645 75 75z" fill="#ffb655"/><path d="m151 165h30c0-41.355 33.645-75 75-75v-30c-57.897 0-105 47.103-105 105z" fill="#ffde55"/><path d="m91 165h30c0-74.439 60.561-135 135-135v-30c-90.981 0-165 74.019-165 165z" fill="#fff68e"/></g></svg>