<svg height="440pt" viewBox="0 -47 440.00067 440" width="440pt" xmlns="http://www.w3.org/2000/svg"><path d="m432.332031 86.335938v212c0 22.089843-17.910156 40-40 40h-344.660156c-22.09375 0-40-17.910157-40-40v-212c0-22.09375 17.90625-40 40-40h344.660156c22.089844 0 40 17.90625 40 40zm-44.332031 44v-46h-80v46zm-105.328125 62c0-51.179688-41.492187-92.671876-92.671875-92.671876s-92.667969 41.492188-92.667969 92.671876c0 51.179687 41.488281 92.667968 92.667969 92.667968 51.183594.003906 92.675781-41.488281 92.671875-92.667968zm0 0" fill="#00acea"/><path d="m308 84.335938h80v46h-80zm0 0" fill="#00efd1"/><path d="m190 99.675781c51.179688.003907 92.664062 41.492188 92.660156 92.667969-.003906 51.179688-41.492187 92.664062-92.667968 92.660156-51.179688 0-92.664063-41.492187-92.660157-92.667968 0-51.179688 41.488281-92.664063 92.667969-92.660157zm54 92.660157c-.003906-29.824219-24.183594-53.996094-54.007812-53.992188-29.820313.003906-53.992188 24.183594-53.992188 54.003906.003906 29.824219 24.179688 53.996094 54 53.996094 29.828125 0 54.003906-24.179688 54-54.007812zm0 0" fill="#00efd1"/><path d="m190 138.335938c29.828125-.003907 54.007812 24.175781 54.011719 54.003906 0 29.824218-24.179688 54.007812-54.007813 54.003906-29.828125 0-54.007812-24.179688-54.003906-54.007812 0-29.824219 24.175781-54 54-54zm0 0" fill="#fedb41"/><path d="m68 7.675781h93.332031v38.660157h-93.332031zm0 0" fill="#fedb41"/><g fill="#083863"><path d="m190 293.003906c55.59375 0 100.660156-45.070312 100.660156-100.664062 0-55.597656-45.070312-100.664063-100.664062-100.664063s-100.664063 45.066407-100.664063 100.660157c.0625 55.570312 45.097657 100.605468 100.667969 100.667968zm0-185.328125c46.757812.003907 84.664062 37.910157 84.660156 84.667969-.003906 46.761719-37.910156 84.664062-84.667968 84.660156-46.761719 0-84.664063-37.910156-84.660157-84.667968.054688-46.738282 37.929688-84.609376 84.667969-84.660157zm0 0"/><path d="m190 254.34375c34.246094.003906 62.007812-27.753906 62.011719-62 0-34.242188-27.757813-62.003906-62-62.007812-34.246094-.003907-62.007813 27.753906-62.011719 62 .035156 34.226562 27.773438 61.96875 62 62.007812zm0-108.007812c25.410156-.003907 46.007812 20.59375 46.011719 46.003906 0 25.40625-20.597657 46.007812-46.007813 46.003906-25.410156 0-46.007812-20.597656-46.003906-46.007812.03125-25.394532 20.605469-45.972657 46-46zm0 0"/><path d="m396 84.003906c0-4.417968-3.582031-8-8-8h-80c-4.417969 0-8 3.582032-8 8v46c0 4.417969 3.582031 8 8 8h80c4.417969 0 8-3.582031 8-8zm-80 8h64v30h-64zm0 0"/><path d="m161.332031.00390625h-93.332031c-2.085938-.07421875-4.113281.69921875-5.621094 2.14453175-1.507812 1.445312-2.363281 3.4375-2.378906 5.527343v30.328125h-12.328125c-26.472656 0-47.671875 21.863282-47.671875 48.332032v212c-.046875 12.65625 4.960938 24.808593 13.910156 33.757812 8.949219 8.953125 21.101563 13.960938 33.761719 13.910156h344.660156c12.65625.050782 24.808594-4.957031 33.757813-13.910156 8.949218-8.949219 13.957031-21.101562 13.910156-33.757812v-212c0-26.46875-21.199219-48.332032-47.667969-48.332032h-223.332031v-30.328125c.0625-2.054687-.726562-4.039062-2.175781-5.492187-1.453125-1.453125-3.441407-2.2421878-5.492188-2.17968775zm-85.332031 15.99999975h77v22h-77zm349 282c0 17.675782-14.328125 32-32 32h-345c-17.671875 0-32-14.324218-32-32v-212c0-17.671875 14.328125-32 32-32h345c17.671875 0 32 14.328125 32 32zm0 0"/></g></svg>